<?xml version="1.0" standalone="no"?>
<!DOCTYPE svg PUBLIC "-//W3C//DTD SVG 20010904//EN"
 "http://www.w3.org/TR/2001/REC-SVG-20010904/DTD/svg10.dtd">
<svg version="1.0" xmlns="http://www.w3.org/2000/svg"
 width="400.000000pt" height="400.000000pt" viewBox="0 0 400.000000 400.000000"
 preserveAspectRatio="xMidYMid meet">
<metadata>
Created by potrace 1.14, written by Peter Selinger 2001-2017
</metadata>
<g transform="translate(0.000000,400.000000) scale(0.100000,-0.100000)"
fill="#000000" stroke="none">
<path d="M2657 3741 c-27 -10 -130 -144 -162 -209 -43 -91 -46 -97 -50 -117
-2 -11 -4 -20 -5 -20 -1 0 -3 -7 -5 -15 -2 -8 -6 -28 -10 -45 -10 -38 -15
-296 -7 -309 3 -6 7 -26 9 -46 2 -19 8 -39 14 -45 5 -5 9 -22 9 -37 0 -15 3
-28 8 -28 4 0 16 -21 26 -48 11 -26 22 -49 25 -52 4 -3 18 -24 33 -46 15 -23
38 -54 52 -69 14 -15 26 -34 26 -41 0 -8 3 -14 8 -14 4 0 7 -186 6 -413 0
-252 3 -421 9 -434 10 -22 24 -28 57 -23 30 4 37 33 36 157 -1 67 3 123 7 123
5 0 5 5 1 11 -9 16 -11 120 -1 126 4 2 5 9 1 14 -9 14 -9 163 0 177 4 7 3 12
-1 12 -9 0 -8 104 1 118 2 4 1 14 -4 22 -4 7 -4 24 1 37 5 14 5 23 -1 23 -6 0
-6 9 -1 23 9 23 11 31 11 46 0 5 6 16 13 23 29 29 107 141 107 154 0 8 4 14
10 14 5 0 9 3 8 8 0 4 7 25 17 47 10 22 18 46 16 53 -1 6 4 12 10 12 7 0 10 3
7 6 -4 3 -2 19 2 35 11 39 23 152 21 209 -3 92 -6 130 -11 130 -3 0 -6 8 -7
18 -3 42 -8 62 -15 62 -4 0 -5 9 -3 20 2 11 0 20 -6 20 -5 0 -9 7 -9 15 0 20
-49 119 -61 123 -5 2 -7 7 -5 11 3 4 -8 23 -25 42 -16 19 -29 37 -29 41 0 14
-84 88 -100 87 -8 0 -23 -4 -33 -8z m65 -162 c13 -17 22 -35 21 -40 -2 -5 1
-9 6 -9 10 0 69 -122 63 -129 -2 -2 1 -7 7 -10 6 -4 13 -21 14 -38 2 -16 7
-34 10 -40 3 -5 8 -33 11 -61 3 -29 8 -57 11 -62 3 -6 3 -10 -2 -10 -4 0 -9
-26 -10 -58 -1 -52 -9 -127 -13 -127 -1 0 -3 -7 -5 -15 -9 -41 -50 -135 -66
-151 -11 -11 -19 -21 -19 -24 1 -13 -19 -39 -21 -27 -1 6 -3 17 -4 22 -1 6 -3
12 -4 15 0 3 -1 7 -2 10 0 2 -4 18 -9 35 -5 19 -5 30 1 30 6 0 7 5 4 10 -4 6
-9 25 -11 43 -2 18 -6 41 -8 52 -3 11 -5 28 -5 38 -2 34 -17 16 -17 -20 -1
-21 -5 -60 -9 -88 -4 -27 -7 -65 -7 -82 0 -18 -5 -33 -10 -33 -5 0 -7 -4 -3
-9 3 -5 1 -12 -4 -15 -17 -11 -85 109 -92 164 -2 14 -7 27 -10 30 -4 3 -8 19
-10 35 -2 17 -8 36 -14 44 -8 11 -7 13 3 7 11 -7 12 -4 3 12 -13 25 -6 221 9
240 2 1 3 10 5 20 2 19 10 42 33 92 9 19 17 37 17 40 4 18 30 60 37 60 4 0 8
6 8 14 0 18 41 66 57 66 7 0 23 -14 35 -31z"/>
<path d="M1626 3204 c-14 -10 -19 -26 -19 -61 -1 -72 7 -147 15 -153 4 -3 8
-21 10 -39 1 -18 6 -35 10 -37 5 -3 6 -10 3 -15 -4 -5 -1 -9 6 -9 7 0 10 -3 6
-6 -3 -4 0 -19 9 -35 8 -16 14 -31 15 -34 0 -2 6 -19 14 -37 16 -38 21 -34
-90 -68 -38 -11 -77 -24 -85 -27 -8 -3 -17 -7 -20 -8 -3 -1 -13 -5 -22 -8 -40
-15 -54 -20 -63 -23 -34 -8 -335 -154 -403 -195 -68 -41 -228 -149 -248 -167
-11 -11 -25 -21 -31 -23 -40 -15 -268 -240 -323 -319 -14 -19 -32 -43 -41 -53
-19 -21 -112 -197 -104 -197 3 0 1 -8 -4 -19 -30 -56 -33 -237 -5 -283 5 -7 9
-19 11 -27 2 -17 61 -92 88 -111 59 -43 122 -61 225 -64 82 -2 216 29 276 65
17 10 34 16 37 12 4 -3 7 -1 7 6 0 7 5 9 10 6 6 -3 13 1 16 9 3 8 14 18 24 21
10 3 27 13 38 23 11 9 39 33 62 52 61 49 150 140 150 151 0 6 4 8 9 4 5 -3 12
4 16 15 3 11 10 20 15 20 5 0 12 9 15 20 4 11 10 18 15 15 5 -3 11 1 14 7 3 7
4 0 2 -17 -3 -28 -36 -108 -73 -181 -14 -28 -67 -64 -93 -64 -5 0 -21 -5 -37
-12 -15 -6 -30 -12 -33 -12 -24 -5 -173 -97 -231 -144 -80 -63 -199 -189 -199
-209 0 -7 -4 -13 -10 -13 -5 0 -10 -9 -10 -20 0 -11 -4 -20 -10 -20 -5 0 -10
-11 -10 -25 0 -14 -4 -25 -9 -25 -4 0 -7 -10 -7 -23 1 -12 -1 -30 -6 -39 -5
-10 -4 -19 2 -23 6 -4 8 -10 5 -15 -10 -17 25 -69 57 -86 47 -24 128 -13 190
25 27 17 51 31 54 31 11 0 129 129 131 144 1 5 6 12 11 15 12 8 102 149 102
160 0 5 6 16 12 23 7 7 22 31 33 53 11 22 33 65 50 96 16 30 31 62 33 70 2 8
8 16 13 17 5 2 7 7 4 12 -2 4 4 15 15 25 11 10 20 15 20 11 0 -4 9 -2 21 4 20
11 20 12 3 31 -17 19 -17 22 5 72 12 29 24 57 25 62 1 6 12 32 24 59 12 27 22
54 22 61 0 6 3 15 8 19 4 4 7 11 8 14 0 4 5 18 11 32 6 14 17 45 26 70 8 25
27 76 41 114 42 110 32 160 -26 130 -16 -8 -26 -19 -23 -24 4 -6 1 -10 -5 -10
-6 0 -9 -4 -6 -9 4 -5 2 -11 -4 -13 -5 -1 -11 -12 -13 -23 -3 -20 -57 -135
-67 -145 -9 -8 -44 -65 -42 -67 1 -2 -6 -12 -15 -22 -29 -32 -43 -50 -43 -56
0 -3 -8 -13 -17 -24 -10 -10 -40 -44 -68 -77 -27 -32 -72 -78 -99 -103 -27
-26 -56 -53 -65 -61 -63 -59 -202 -135 -293 -160 -27 -7 -76 -13 -110 -14 -63
-1 -148 20 -148 36 0 4 -6 8 -14 8 -12 0 -69 61 -89 96 -30 52 -41 182 -21
252 4 15 8 32 9 37 1 6 3 13 5 18 1 4 3 10 5 15 1 4 7 20 13 35 7 16 12 33 12
38 0 5 5 9 10 9 6 0 9 3 8 8 -3 12 25 62 34 62 5 0 7 4 4 8 -2 4 9 23 25 41
16 19 29 36 29 40 0 3 29 36 63 73 35 38 61 70 59 73 -3 3 -1 5 4 5 5 0 36 25
69 56 60 56 237 194 249 194 4 0 16 9 28 20 12 10 25 17 30 14 4 -3 8 0 8 5 0
6 7 11 15 11 8 0 15 4 15 8 0 10 50 37 63 34 4 -1 7 2 7 7 0 7 250 135 320
164 14 5 34 14 45 18 52 23 185 67 185 62 0 -3 6 -1 13 5 6 5 32 13 57 17 43
6 46 5 64 -26 10 -17 26 -40 35 -49 9 -10 28 -31 42 -46 28 -31 108 -104 115
-104 2 0 27 -15 56 -33 29 -18 75 -43 101 -55 26 -13 45 -26 42 -31 -8 -14 5
-39 20 -37 7 1 20 8 29 15 9 8 26 10 43 7 34 -8 68 -14 107 -22 16 -2 35 -12
41 -21 12 -16 13 -68 2 -79 -3 -3 -60 -6 -126 -7 -77 -1 -115 -4 -105 -10 9
-5 21 -10 27 -12 7 -1 19 -5 27 -8 8 -3 49 -16 90 -28 41 -12 79 -26 84 -31 6
-4 11 -32 12 -60 1 -29 3 -62 3 -74 1 -23 42 -47 66 -38 25 10 32 34 31 102
-1 34 2 62 7 62 4 0 6 3 3 8 -2 4 -6 94 -7 200 -2 105 -6 192 -9 192 -3 0 -7
14 -8 31 -1 17 -7 40 -12 50 -6 10 -9 22 -9 26 1 4 -3 21 -9 36 -7 16 -12 33
-12 38 0 5 -5 9 -12 9 -6 0 -8 3 -5 7 4 3 0 17 -8 30 -9 13 -13 23 -10 23 4 0
0 7 -8 15 -8 8 -25 31 -38 52 -13 21 -26 40 -29 43 -3 3 -13 15 -22 28 -26 38
-114 128 -131 135 -10 3 -17 11 -17 17 0 5 -6 10 -13 10 -7 0 -22 8 -33 18
-30 26 -159 86 -207 96 -12 3 -48 12 -79 20 -83 23 -189 28 -212 10z m193
-109 c112 -23 214 -71 299 -140 57 -46 171 -171 172 -187 0 -4 8 -17 18 -28 9
-11 17 -24 18 -28 0 -4 6 -20 13 -37 6 -16 15 -41 20 -55 5 -14 13 -34 17 -45
4 -11 6 -26 5 -32 -1 -7 4 -13 11 -13 10 0 10 -2 0 -9 -8 -4 -13 -11 -13 -15
2 -14 -12 -6 -45 23 -19 17 -34 29 -34 26 0 -3 -16 9 -35 26 -19 18 -35 41
-35 51 0 11 -4 17 -8 14 -4 -2 -13 7 -20 22 -11 25 -81 68 -122 76 -8 2 -24 7
-34 11 -10 5 -62 9 -115 9 -71 1 -100 5 -113 16 -17 15 -65 115 -72 148 -1 9
-6 24 -9 32 -3 8 -9 32 -12 54 -3 21 -8 43 -11 48 -3 5 0 16 8 25 11 14 11 16
-1 8 -10 -5 -12 -4 -7 3 9 15 20 15 105 -3z m207 -377 c3 -5 16 -8 30 -8 13 0
24 -5 24 -11 0 -5 4 -8 9 -5 19 12 88 -80 96 -129 1 -5 3 -14 5 -20 3 -13 -1
-69 -6 -74 -5 -6 -65 20 -96 41 -16 11 -28 16 -28 13 0 -4 -6 0 -14 7 -24 23
-56 48 -61 48 -3 0 -23 19 -45 43 -22 23 -52 54 -66 68 -18 20 -22 28 -12 32
19 9 159 4 164 -5z m268 -249 c-3 -5 0 -8 7 -7 7 2 15 -5 17 -15 3 -15 -1 -17
-25 -13 -15 2 -34 5 -40 5 -9 1 -10 8 -3 26 5 14 9 29 9 33 -4 23 4 24 21 3
11 -12 17 -27 14 -32z m-1138 -1172 c1 -9 -2 -17 -7 -17 -5 0 -8 -3 -7 -7 4
-14 -114 -236 -140 -265 -8 -10 -11 -18 -6 -18 5 0 5 -4 -1 -8 -5 -4 -27 -32
-47 -62 -51 -76 -154 -180 -178 -180 -6 0 -10 -4 -10 -8 0 -5 -6 -9 -12 -10
-7 -1 -27 -4 -43 -8 -50 -9 -77 20 -78 86 -1 53 10 84 59 172 24 43 126 145
208 206 76 58 216 139 216 125 0 -4 5 -2 12 5 16 16 31 11 34 -11z"/>
<path d="M3618 3215 c-2 -2 -19 -5 -38 -8 -63 -9 -137 -29 -190 -52 -3 -2 -15
-6 -27 -10 -13 -4 -23 -12 -23 -18 0 -6 -3 -8 -6 -4 -7 7 -99 -48 -155 -93
-62 -50 -125 -115 -146 -150 -9 -17 -21 -30 -25 -30 -4 0 -8 -7 -8 -15 0 -7
-8 -18 -17 -24 -10 -5 -17 -12 -16 -15 2 -3 -10 -33 -26 -66 -16 -33 -27 -60
-25 -60 2 0 -2 -17 -10 -37 -8 -21 -17 -47 -21 -58 -10 -28 -16 -94 -18 -212
-1 -57 -6 -103 -10 -103 -4 0 -3 -9 3 -20 6 -11 7 -20 2 -20 -5 0 -9 -7 -9
-15 0 -8 3 -15 6 -15 4 0 6 -45 5 -100 -1 -55 2 -103 7 -106 5 -3 7 -10 4 -15
-11 -16 45 -31 64 -17 26 21 28 26 27 93 -1 55 2 66 19 74 23 11 82 30 115 36
12 2 29 10 38 17 8 7 17 12 19 11 3 -3 10 -3 28 2 6 1 16 3 23 3 6 1 12 5 12
10 0 4 -52 7 -115 7 -63 0 -118 4 -124 10 -16 16 -20 62 -8 79 12 16 33 23 97
32 37 5 121 29 155 45 31 14 80 31 84 29 2 -1 7 2 10 7 3 4 38 29 76 55 76 51
118 87 153 132 12 16 22 25 22 20 0 -4 14 14 31 42 17 27 35 51 40 52 5 2 9
12 9 22 0 11 8 24 18 29 9 6 14 11 9 11 -4 0 1 17 12 39 11 21 17 41 14 45 -4
3 -1 6 5 6 7 0 11 3 11 8 -1 4 0 10 1 15 1 4 3 10 4 15 2 4 8 27 15 52 18 61
21 84 25 165 4 88 -9 103 -89 103 -30 -1 -56 -2 -57 -3z m34 -120 c3 -6 2 -32
-3 -59 -5 -26 -6 -52 -3 -57 3 -5 0 -9 -7 -9 -7 0 -10 -3 -6 -6 3 -4 0 -19 -9
-35 -8 -16 -14 -30 -13 -31 1 -2 -7 -23 -18 -48 -11 -25 -19 -47 -19 -50 0 -3
-16 -27 -37 -54 -20 -27 -37 -53 -37 -58 0 -5 -4 -6 -10 -3 -5 3 -10 1 -10 -5
0 -15 -110 -119 -156 -147 -55 -34 -112 -61 -118 -56 -3 4 -6 1 -6 -6 0 -7 -4
-9 -10 -6 -5 3 -10 2 -10 -3 0 -5 -6 -9 -12 -10 -7 0 -35 -6 -61 -12 -38 -10
-51 -9 -60 0 -9 10 -9 11 1 6 6 -4 12 -2 12 5 0 10 64 97 104 139 7 8 30 37
51 63 30 41 32 46 11 30 -14 -10 -26 -22 -26 -26 0 -5 -4 -5 -10 -2 -5 3 -10
-1 -10 -10 0 -9 -4 -14 -9 -11 -5 3 -12 -1 -15 -10 -4 -9 -9 -14 -12 -11 -3 3
-20 -8 -37 -24 -47 -44 -108 -89 -119 -89 -6 0 -7 12 -3 28 4 15 9 35 11 46 8
41 40 114 78 178 96 162 267 287 462 338 74 19 106 20 116 5z"/>
<path d="M2468 1763 c-34 -39 -31 -81 5 -67 15 6 37 46 37 69 0 20 -24 19 -42
-2z"/>
<path d="M2873 1695 c-24 -17 -47 -72 -32 -80 32 -21 -17 -87 -93 -126 -74
-38 -166 -21 -156 29 3 13 14 17 50 18 65 2 104 20 122 57 13 28 13 34 0 48
-19 21 -67 22 -118 1 -41 -16 -96 -58 -96 -74 0 -15 -36 -44 -82 -66 -58 -27
-99 -17 -66 16 7 7 9 12 5 12 -4 0 4 22 17 49 25 48 25 49 5 54 -15 4 -27 -4
-47 -34 -27 -39 -126 -99 -163 -99 -10 0 -20 -4 -23 -8 -7 -11 -70 -6 -96 8
-19 10 -26 60 -7 60 4 0 6 4 3 9 -8 12 50 70 81 82 14 5 34 7 43 4 23 -7 37
14 19 26 -13 9 -65 8 -99 -2 -26 -7 -71 -46 -93 -79 -19 -30 -31 -90 -17 -90
5 0 7 -6 4 -13 -7 -18 53 -42 112 -46 28 -1 76 6 114 18 36 12 66 21 68 21 1
0 2 -7 2 -15 0 -22 41 -44 75 -40 38 3 62 13 98 37 23 17 28 17 33 4 11 -28
71 -47 139 -44 36 1 65 6 65 9 0 4 7 10 16 13 18 7 17 6 -26 -46 -58 -71 42
-106 172 -61 26 9 50 24 54 32 12 28 13 64 3 83 -17 32 -1 53 66 83 75 33 93
64 23 39 -24 -8 -50 -17 -58 -21 -8 -3 -27 -8 -43 -10 -22 -3 -29 1 -39 24
-17 40 -17 91 0 98 8 3 26 -2 39 -10 25 -17 43 -13 43 9 0 15 -42 36 -73 36
-13 0 -32 -7 -44 -15z m-159 -84 c8 -12 -21 -35 -49 -38 -33 -5 -40 13 -13 31
25 18 54 21 62 7z m156 -89 c0 -5 -15 -19 -32 -32 l-33 -23 29 31 c31 34 36
37 36 24z m32 -93 c4 -28 1 -33 -28 -45 -38 -16 -104 -19 -104 -5 0 11 78 76
100 83 22 8 27 2 32 -33z"/>
<path d="M1575 1672 c-18 -12 -65 -99 -58 -106 3 -3 1 -6 -5 -6 -7 0 -12 -6
-12 -14 0 -8 -3 -16 -7 -18 -13 -5 -43 -69 -38 -78 7 -11 49 -3 53 9 2 5 11
18 20 29 9 11 33 41 52 66 36 46 67 66 109 73 19 3 23 1 18 -16 -6 -25 19 -36
38 -17 8 7 11 16 8 20 -4 3 -1 6 5 6 9 0 9 6 0 25 -12 27 -39 32 -96 16 -24
-7 -35 -6 -46 5 -16 16 -26 17 -41 6z"/>
<path d="M1824 1630 c-70 -44 -102 -128 -62 -166 23 -22 80 -32 118 -20 48 15
72 33 104 80 32 48 34 89 4 110 -25 18 -74 21 -83 6 -3 -5 -15 -6 -29 0 -17 6
-31 4 -52 -10z m124 -38 c7 -45 -85 -131 -127 -117 -14 4 -17 13 -15 38 2 17
11 37 19 43 8 6 12 13 9 16 -8 8 75 46 94 44 9 -2 18 -13 20 -24z"/>
<path d="M1665 1160 c-3 -5 -2 -10 3 -10 6 0 8 -9 5 -20 -3 -12 0 -20 6 -20 7
0 10 -4 7 -8 -9 -15 12 -35 29 -29 9 4 14 11 10 16 -3 5 -1 12 5 16 9 6 14 -7
11 -27 0 -5 8 -8 19 -8 18 0 25 10 21 33 0 4 4 7 10 7 5 0 7 5 4 10 -3 6 -1
10 6 10 8 0 9 3 0 13 -6 8 -7 17 -3 22 4 4 0 5 -8 3 -8 -3 -14 -11 -12 -17 1
-6 -5 -11 -13 -11 -8 0 -15 7 -15 16 0 9 -7 14 -17 12 -10 -2 -18 -10 -18 -17
0 -8 -6 -16 -13 -19 -7 -2 -12 0 -11 5 5 29 -12 45 -26 23z"/>
<path d="M1859 1168 c-5 -14 -3 -98 2 -98 12 0 29 27 21 35 -4 4 2 5 13 3 11
-2 19 -11 19 -20 -1 -10 5 -16 15 -15 15 1 20 36 12 90 -2 14 -26 1 -26 -14 0
-7 -8 -15 -18 -17 -10 -2 -17 0 -16 5 3 18 -2 33 -11 33 -5 0 -10 -1 -11 -2z"/>
<path d="M1997 1163 c-2 -5 -3 -26 -3 -48 1 -38 3 -40 34 -43 18 -2 32 1 32 7
0 6 -10 11 -22 11 l-23 0 25 20 c25 20 25 20 3 20 -13 0 -23 5 -23 10 0 6 9
10 21 10 11 0 17 5 14 10 -7 12 -52 14 -58 3z"/>
<path d="M2116 1161 c-12 -19 -3 -91 11 -91 8 0 11 5 8 10 -3 6 -2 10 4 10 5
0 13 -4 16 -10 10 -16 26 -11 24 8 -1 9 1 25 6 35 4 10 2 23 -5 32 -14 16 -56
20 -64 6z m44 -27 c0 -8 -4 -12 -10 -9 -5 3 -10 10 -10 16 0 5 5 9 10 9 6 0
10 -7 10 -16z"/>
<path d="M2247 1163 c-2 -5 -4 -27 -4 -50 -1 -41 1 -43 28 -43 16 0 29 5 29
10 0 6 -7 10 -15 10 -8 0 -15 5 -15 10 0 6 7 10 15 10 8 0 15 6 15 14 0 10 -7
12 -22 8 -14 -3 -19 -2 -14 6 4 7 14 12 22 12 8 0 14 5 14 10 0 12 -47 14 -53
3z"/>
<path d="M2429 1168 c0 -2 -2 -24 -4 -50 -3 -47 -3 -48 25 -48 16 0 32 5 35
10 3 6 -3 10 -14 10 -12 0 -21 5 -21 10 0 6 7 10 15 10 8 0 15 6 16 13 0 6 2
20 4 30 2 13 -4 17 -26 17 -16 0 -29 -1 -30 -2z m46 -28 c-3 -5 -10 -10 -16
-10 -5 0 -9 5 -9 10 0 6 7 10 16 10 8 0 12 -4 9 -10z"/>
<path d="M2535 1148 c27 -89 54 -96 81 -23 11 31 13 45 6 45 -14 0 -27 -16
-30 -35 -2 -11 -8 -24 -13 -30 -7 -7 -8 -4 -4 8 5 10 2 17 -6 17 -7 0 -10 3
-6 6 6 7 -16 34 -28 34 -3 0 -3 -10 0 -22z"/>
<path d="M2677 1156 c-3 -7 0 -19 6 -25 8 -8 8 -11 -1 -11 -9 0 -10 -5 -3 -19
6 -10 7 -21 4 -25 -3 -3 8 -6 25 -6 37 0 42 14 10 25 l-23 8 23 4 c12 2 22 8
22 13 0 5 -10 11 -22 13 l-23 4 23 8 c12 4 22 11 22 16 0 15 -57 10 -63 -5z"/>
<path d="M2793 1120 c-1 -48 11 -66 23 -35 6 14 8 13 20 -2 10 -14 15 -16 25
-5 10 9 10 12 1 12 -9 0 -9 6 0 25 14 31 -3 55 -41 55 -25 0 -26 -3 -28 -50z
m47 16 c0 -3 -4 -8 -10 -11 -5 -3 -10 -1 -10 4 0 6 5 11 10 11 6 0 10 -2 10
-4z"/>
<path d="M2920 1163 c0 -2 9 -21 20 -42 10 -21 16 -41 13 -45 -4 -3 -1 -6 5
-6 7 0 12 9 12 19 0 11 4 21 8 23 14 5 24 58 12 58 -6 0 -13 -7 -16 -15 -8
-19 -24 -20 -24 -2 0 8 -7 14 -15 14 -8 0 -15 -2 -15 -4z"/>
<path d="M3137 1123 c-8 -27 -13 -49 -12 -51 2 -2 13 3 25 10 18 10 24 10 27
1 3 -7 13 -13 24 -13 17 0 18 3 8 23 -7 12 -12 24 -12 27 0 3 -3 15 -8 28 -14
37 -37 26 -52 -25z"/>
<path d="M3269 1163 c-7 -45 -3 -93 8 -93 12 0 16 13 16 55 0 34 -4 45 -13 45
-5 0 -11 -3 -11 -7z"/>
<path d="M3351 1152 c-11 -21 3 -42 26 -42 7 0 13 -5 13 -10 0 -6 -11 -8 -27
-4 -25 7 -27 6 -14 -9 18 -23 43 -21 64 3 9 11 13 20 9 20 -4 0 -18 9 -32 20
l-25 21 28 -7 c22 -5 26 -3 21 10 -8 22 -51 20 -63 -2z"/>
<path d="M3473 1120 c-2 -49 -1 -50 28 -50 18 0 28 4 24 10 -3 6 -12 10 -19
10 -8 0 -11 14 -10 40 1 26 -2 40 -10 40 -8 0 -13 -18 -13 -50z"/>
<path d="M3579 1168 c-1 -2 -2 -24 -3 -50 -2 -46 -1 -48 25 -48 16 0 31 5 34
10 3 6 -4 10 -17 10 -23 1 -23 1 -3 16 17 13 18 16 5 24 -13 8 -12 11 5 24 19
15 19 15 -12 16 -18 0 -34 -1 -34 -2z"/>
<path d="M1829 937 c-1 -1 -3 -23 -4 -49 l-2 -48 33 0 c19 0 34 3 35 8 5 33 5
82 0 83 -17 3 -61 8 -62 6z m48 -63 c-3 -3 -12 -4 -19 -1 -8 3 -5 6 6 6 11 1
17 -2 13 -5z"/>
<path d="M1957 933 c-10 -17 -1 -87 11 -91 7 -2 11 1 10 6 -2 6 2 9 7 9 6 -1
9 -4 8 -7 -1 -3 7 -7 18 -7 16 -2 18 1 10 11 -6 7 -8 16 -4 19 3 4 7 18 9 31
2 17 -4 26 -19 30 -30 8 -45 7 -50 -1z m38 -23 c-3 -5 -12 -10 -18 -10 -7 0
-6 4 3 10 19 12 23 12 15 0z"/>
<path d="M2076 925 c-3 -8 -1 -17 3 -19 5 -3 7 -20 5 -37 -3 -21 0 -29 9 -26
17 5 18 84 2 91 -7 2 -16 -2 -19 -9z"/>
<path d="M2167 933 c-2 -5 -5 -28 -6 -52 -2 -32 1 -42 11 -39 7 3 12 16 11 29
l-3 24 25 -27 c33 -38 53 -28 46 23 -5 35 -24 55 -27 29 -1 -5 -2 -16 -3 -22
-1 -7 -9 -1 -19 15 -17 27 -28 33 -35 20z"/>
<path d="M2328 933 c-10 -2 -18 -8 -19 -11 0 -4 -2 -15 -4 -26 -6 -30 5 -44
37 -51 22 -5 34 -2 48 13 21 22 10 42 -22 42 -21 0 -23 -11 -6 -28 7 -7 8 -12
3 -12 -16 0 -30 14 -33 33 -2 14 5 17 35 17 36 1 37 2 19 15 -20 15 -27 16
-58 8z"/>
<path d="M2456 923 c-10 -24 -7 -31 14 -38 11 -3 20 -10 20 -15 0 -4 -9 -6
-20 -3 -11 3 -20 0 -20 -6 0 -19 48 -24 65 -7 15 14 14 18 -10 40 -23 22 -24
24 -5 19 15 -4 19 -2 15 10 -8 19 -52 19 -59 0z"/>
<path d="M2672 928 c-5 -7 -15 -30 -20 -50 -8 -30 -8 -38 3 -38 7 0 15 6 18
13 3 10 9 10 26 0 11 -7 23 -13 26 -13 8 0 6 36 -2 44 -5 4 -8 11 -9 14 -2 16
-17 42 -24 42 -4 0 -12 -6 -18 -12z"/>
<path d="M2856 916 c-3 -12 -2 -22 3 -24 4 -1 17 -9 27 -17 18 -13 18 -14 -2
-9 -12 3 -25 1 -28 -5 -4 -6 -4 -11 1 -12 4 0 17 -2 28 -4 21 -4 45 11 45 29
0 7 -12 17 -27 23 -26 10 -26 11 -5 12 20 1 32 19 15 22 -42 7 -52 4 -57 -15z"/>
<path d="M2987 933 c-12 -12 -7 -80 7 -92 11 -9 13 -6 9 16 -3 26 -3 27 6 6
12 -26 41 -31 41 -8 0 8 5 15 11 15 5 0 8 -4 4 -9 -3 -5 0 -13 6 -17 14 -8 28
13 24 35 -2 9 -4 26 -4 39 -1 33 -29 27 -44 -10 l-13 -32 -13 32 c-13 32 -22
38 -34 25z"/>
<path d="M3149 928 c-3 -40 -1 -80 5 -86 10 -9 25 17 21 37 -2 9 -4 26 -4 39
-1 23 -20 32 -22 10z"/>
<path d="M3229 933 c-5 -33 -4 -75 2 -84 3 -6 19 -9 35 -7 27 4 27 5 9 14 -11
5 -21 17 -21 27 -1 9 -2 26 -3 37 -1 19 -20 29 -22 13z"/>
<path d="M3334 893 c1 -45 3 -48 29 -51 33 -4 36 13 5 22 l-23 7 25 10 25 11
-22 9 c-28 10 -30 23 -3 16 13 -3 20 0 20 9 0 9 -11 14 -28 14 -27 0 -28 -2
-28 -47z"/>
<path d="M3453 910 c1 -16 6 -30 12 -30 5 0 4 -5 -3 -12 -16 -16 -15 -28 1
-28 8 0 12 16 12 50 0 32 -4 50 -12 50 -7 0 -11 -12 -10 -30z"/>
</g>
</svg>
